<svg xmlns="http://www.w3.org/2000/svg" viewBox="0 0 512 512"><defs><linearGradient id="bg" x1="0" y1="0" x2="0" y2="1"><stop offset="0" stop-color="#FFFFFF"/><stop offset="1" stop-color="#FFF6E3"/></linearGradient><radialGradient id="glow" cx=".5" cy=".48" r=".45"><stop offset="0" stop-color="#FFB829" stop-opacity=".22"/><stop offset="1" stop-color="#FFB829" stop-opacity="0"/></radialGradient><filter id="sh" x="-20%" y="-20%" width="140%" height="140%"><feDropShadow dx="0" dy="10" stdDeviation="12" flood-color="#D98A00" flood-opacity=".28"/></filter></defs><rect width="512" height="512" fill="url(#bg)"/><circle cx="256" cy="246" r="230" fill="url(#glow)"/><g filter="url(#sh)">
  <svg  viewBox="0 0 120 150" x="106" y="70" width="300" height="375" aria-hidden="true">
    <defs>
      <linearGradient id="m1g" x1="0" y1="0" x2="1" y2="1" gradientUnits="userSpaceOnUse" gradientTransform="scale(120 150)">
        <stop offset="0" stop-color="#FFCB4D"/><stop offset="1" stop-color="#F29A00"/>
      </linearGradient>
      <clipPath id="m1c"><path d="M60 8C66 8 70 12 72.5 18.5L106 116C109 125 103 132 94 132H79C74 132 71 129 70 124L66 104C64.5 97 55.5 97 54 104L50 124C49 129 46 132 41 132H26C17 132 11 125 14 116L47.5 18.5C50 12 54 8 60 8Z"/></clipPath>
    </defs>
    <ellipse class="m-shadow" cx="60" cy="144" rx="42" ry="5" fill="#B36B00" opacity=".16"/>
    <g class="m-body">
    <ellipse cx="32" cy="134" rx="14" ry="6.5" fill="#C77800"/>
    <ellipse cx="88" cy="134" rx="14" ry="6.5" fill="#C77800"/>
    
    <g class="m-arm-l" style="transform-origin:26px 78px">
      <ellipse cx="20" cy="84" rx="6" ry="11" fill="#FFA21F" transform="rotate(35 20 84)"/>
    </g>
    
    <g class="m-arm-r" style="transform-origin:94px 78px">
      <ellipse cx="100" cy="84" rx="6" ry="11" fill="#FFA21F" transform="rotate(-35 100 84)"/>
    </g>
    <path d="M60 8C66 8 70 12 72.5 18.5L106 116C109 125 103 132 94 132H79C74 132 71 129 70 124L66 104C64.5 97 55.5 97 54 104L50 124C49 129 46 132 41 132H26C17 132 11 125 14 116L47.5 18.5C50 12 54 8 60 8Z" fill="url(#m1g)"/>
    <g clip-path="url(#m1c)">
      <rect x="0" y="84" width="120" height="11" fill="#FFF4D6"/>
      <path d="M38 18c8-8 20-10 28-4" stroke="#fff" stroke-opacity=".35" stroke-width="5" stroke-linecap="round" fill="none"/>
    </g>
    
  <ellipse cx="39" cy="70" rx="6" ry="3.5" fill="#f9a8d4" opacity=".7"/>
  <ellipse cx="81" cy="70" rx="6" ry="3.5" fill="#f9a8d4" opacity=".7"/>
  
    <g class="m-eyes">
      <ellipse cx="48" cy="56" rx="7.5" ry="8.5" fill="#fff"/>
      <ellipse cx="72" cy="56" rx="7.5" ry="8.5" fill="#fff"/>
      <circle cx="49" cy="57" r="4.5" fill="#1e1b4b"/>
      <circle cx="73" cy="57" r="4.5" fill="#1e1b4b"/>
      <circle cx="50.5" cy="55" r="1.6" fill="#fff"/>
      <circle cx="74.5" cy="55" r="1.6" fill="#fff"/>
    </g>
    
  <path d="M51 69q9 9 18 0" fill="none" stroke="#1e1b4b" stroke-width="3" stroke-linecap="round"/></g>
    
  </svg></g></svg>